Coordinates
version=1
nRows=17
nColumns=40
inDegrees=yes

Units are S.I. units (second, meters, Newtons, ...)
Angles are in degrees.

endheader
time	pelvis_tilt	pelvis_list	pelvis_rotation	pelvis_tx	pelvis_ty	pelvis_tz	hip_flexion_r	hip_adduction_r	hip_rotation_r	knee_angle_r	knee_angle_r_beta	ankle_angle_r	subtalar_angle_r	mtp_angle_r	hip_flexion_l	hip_adduction_l	hip_rotation_l	knee_angle_l	knee_angle_l_beta	ankle_angle_l	subtalar_angle_l	mtp_angle_l	lumbar_extension	lumbar_bending	lumbar_rotation	arm_flex_r	arm_add_r	arm_rot_r	elbow_flex_r	pro_sup_r	wrist_flex_r	wrist_dev_r	arm_flex_l	arm_add_l	arm_rot_l	elbow_flex_l	pro_sup_l	wrist_flex_l	wrist_dev_l
     57.03250000	     -2.89150402	     -5.03200345	     -1.24674586	      1.02394580	      0.92582967	      0.44545090	     18.10460510	      3.20681775	    -14.38220149	     18.98227826	     18.98227826	      5.84586529	     -7.14420889	     -4.02477494	      9.28489292	    -10.82277541	     -4.26735555	     47.07158115	     47.07158115	      8.68370981	    -16.16048400	     -9.59816885	     -7.76301829	      7.41352309	      2.00383679	      2.92727571	    -11.09778847	    -12.85224652	     26.01631448	     47.05575676	      0.00000000	      0.00000000	     11.08119915	     -9.42948061	     -5.29293625	     66.34214297	     47.42442104	      0.00000000	      0.00000000
     57.04485714	     -2.87507532	     -5.16984012	     -0.81444031	      1.02335357	      0.92662948	      0.44728416	     17.25682632	      3.42349248	    -15.01696794	     18.35784209	     18.35784209	      6.11888584	     -6.54874576	     -4.25255775	     11.61227265	    -11.28300013	     -3.18646415	     51.09169443	     51.09169443	      6.74842055	    -16.88598610	     -8.67161163	     -7.76479230	      7.51135179	      1.67524674	      4.76899082	    -11.12810781	    -12.45450413	     27.15201477	     46.98441110	      0.00000000	      0.00000000	     10.38538981	     -9.20206080	     -4.99734842	     62.90481912	     47.34317063	      0.00000000	      0.00000000
     57.05721429	     -2.76278381	     -5.11546922	     -0.48958396	      1.02252063	      0.92752391	      0.44894571	     16.39183894	      3.40988271	    -15.61331957	     17.86313751	     17.86313751	      6.19958193	     -5.81528212	     -5.03491706	     13.93889775	    -11.40648580	     -2.20838111	     55.16482216	     55.16482216	      7.03824046	    -16.42296828	     -2.55239557	     -7.88474272	      7.41805096	      2.87557699	      5.00241710	    -11.99971196	     -9.41103723	     30.67397724	     46.55030699	      0.00000000	      0.00000000	     12.05062200	     -8.06081306	     -3.99046744	     55.28870916	     47.12890886	      0.00000000	      0.00000000
     57.06957143	     -2.73343388	     -5.31335732	     -0.10051212	      1.02155823	      0.92800204	      0.45065304	     15.62668724	      3.69881904	    -16.20254168	     17.35798473	     17.35798473	      6.43662017	     -5.29699574	     -5.13989987	     16.19845956	    -11.84891519	     -1.29568553	     58.46976414	     58.46976414	      5.49257499	    -16.87760537	     -1.95201241	     -8.02524212	      7.57267944	      2.68576591	      7.00596341	    -12.12901057	     -9.26282535	     31.73005042	     46.50877863	      0.00000000	      0.00000000	     10.95389577	     -7.90231775	     -3.70425933	     53.39098868	     47.06779764	      0.00000000	      0.00000000
     57.08192857	     -2.70302939	     -5.30632563	      0.23758577	      1.02048269	      0.92861828	      0.45219253	     14.86300392	      3.70198811	    -17.05389060	     16.89338824	     16.89338824	      6.64141073	     -4.13105994	     -5.57814452	     18.44272266	    -11.95710068	     -0.46999998	     61.48736445	     61.48736445	      5.76382802	    -16.56003489	      2.35108648	     -8.03118446	      7.50750982	      3.10924265	      8.44653184	    -12.65445532	     -7.81468803	     33.58552935	     46.32488530	      0.00000000	      0.00000000	     11.79192696	     -7.21463790	     -3.24060049	     46.81522049	     46.93057521	      0.00000000	      0.00000000
     57.09428571	     -2.70015283	     -5.41857023	      0.55630150	      1.01920166	      0.92912518	      0.45384090	     14.11835880	      3.94328581	    -17.54191253	     16.32246055	     16.32246055	      6.84932231	     -3.51482436	     -5.65817327	     20.55107002	    -12.26296819	      0.15363685	     63.78678349	     63.78678349	      5.22893708	    -16.66193489	      3.53790851	     -8.19218687	      7.54122512	      2.80035693	     10.46097486	    -12.74494306	     -7.49450140	     35.32306575	     46.24027986	      0.00000000	      0.00000000	     10.91764430	     -7.15938787	     -2.89819748	     44.03627836	     46.84447396	      0.00000000	      0.00000000
     57.10664286	     -2.77452724	     -5.52355048	      0.83704748	      1.01785331	      0.92951017	      0.45541808	     13.47094966	      4.14379451	    -18.18601546	     15.78244606	     15.78244606	      7.01213501	     -2.64684462	     -5.86576063	     22.69857422	    -12.50757142	      0.72086992	     65.67034412	     65.67034412	      5.55646437	    -16.57011834	      5.88632574	     -8.17224818	      7.55926201	      3.43589069	     11.67835856	    -13.37619696	     -6.58670756	     37.39341852	     46.09434905	      0.00000000	      0.00000000	     11.30178074	     -6.55498617	     -2.36791243	     38.99125431	     46.71656428	      0.00000000	      0.00000000
     57.11900000	     -2.83394230	     -5.65062652	      1.11213209	      1.01644861	      0.93000901	      0.45698416	     12.74564222	      4.44670200	    -18.57118068	     15.09081291	     15.09081291	      7.12325402	     -2.13351342	     -5.82287946	     24.63153573	    -12.81047460	      1.10671754	     66.80425817	     66.80425817	      5.42069277	    -16.72997330	      6.14144837	     -8.24593911	      7.59576402	      3.17095988	     13.77366604	    -13.40678388	     -6.55408234	     38.93282663	     46.04206739	      0.00000000	      0.00000000	     10.16642449	     -6.56101624	     -2.13486671	     37.03899607	     46.65301215	      0.00000000	      0.00000000
     57.13135714	     -2.84900581	     -5.69999809	      1.33481521	      1.01500929	      0.93069320	      0.45842600	     11.97957038	      4.63300672	    -19.11113262	     14.42609158	     14.42609158	      7.26530991	     -1.18819371	     -5.93739487	     26.35667835	    -13.00228217	      1.32690813	     67.35683021	     67.35683021	      5.87746103	    -16.78498088	      7.28697806	     -8.31286853	      7.56294896	      3.70631252	     15.12461843	    -13.98367124	     -5.92145338	     41.24821619	     45.91186370	      0.00000000	      0.00000000	     10.38907231	     -6.13306925	     -1.59834618	     32.28557241	     46.52914450	      0.00000000	      0.00000000
     57.14371429	     -2.92541490	     -5.79232788	      1.55329630	      1.01358367	      0.93132949	      0.45983552	     11.21239557	      4.94366325	    -19.39975433	     13.59422895	     13.59422895	      7.32657402	     -0.65055337	     -5.82810614	     27.98247702	    -13.25274002	      1.42368193	     67.25840638	     67.25840638	      6.04737018	    -17.01820864	      7.39920783	     -8.36172293	      7.57312062	      3.49595363	     17.19282065	    -13.96439171	     -5.97505243	     42.78440499	     45.86618801	      0.00000000	      0.00000000	      9.12088074	     -6.18773030	     -1.42638480	     30.67737932	     46.47410874	      0.00000000	      0.00000000
     57.15607143	     -2.93522779	     -5.82851209	      1.72811258	      1.01221419	      0.93211533	      0.46113791	     10.33201261	      5.19786786	    -19.72085940	     12.70556470	     12.70556470	      7.39077545	      0.11254725	     -5.75959271	     29.31937277	    -13.44114313	      1.34769531	     66.54323745	     66.54323745	      6.39167490	    -17.24358648	      7.63939065	     -8.45959872	      7.50787251	      3.39282930	     19.17392101	    -14.00494398	     -5.90584288	     44.52715918	     45.80567294	      0.00000000	      0.00000000	      8.07928327	     -6.18961141	     -1.16362081	     28.58852140	     46.40890839	      0.00000000	      0.00000000
     57.16842857	     -2.95974920	     -5.84609375	      1.88473875	      1.01091131	      0.93285415	      0.46224730	      9.46933797	      5.42222627	    -20.04487969	     11.82533347	     11.82533347	      7.47504448	      0.92590824	     -5.72159781	     30.47528418	    -13.59208750	      1.14057959	     65.26286959	     65.26286959	      6.82032538	    -17.39354905	      8.05028806	     -8.52567028	      7.47206128	      3.51811825	     20.90005252	    -14.22990873	     -5.70563506	     46.59095561	     45.72536481	      0.00000000	      0.00000000	      7.26782264	     -6.11493013	     -0.81145204	     26.23995250	     46.33217291	      0.00000000	      0.00000000
     57.18078571	     -3.01252102	     -5.85914683	      2.02423542	      1.00956811	      0.93346152	      0.46321948	      8.64950521	      5.64880673	    -20.28341766	     10.95741498	     10.95741498	      7.55945207	      1.59719673	     -5.66121151	     31.48341880	    -13.70006240	      0.85678197	     63.47424996	     63.47424996	      7.25636183	    -17.54219934	      8.54981309	     -8.56912293	      7.43248273	      3.67244767	     22.53118389	    -14.49199041	     -5.53509114	     48.83570848	     45.64121148	      0.00000000	      0.00000000	      6.32830286	     -6.06847909	     -0.48061400	     24.34742790	     46.25475986	      0.00000000	      0.00000000
     57.19314286	     -3.06929072	     -5.78376819	      2.13552607	      1.00828232	      0.93398982	      0.46404392	      7.86223467	      5.78062049	    -20.35373852	     10.15097016	     10.15097016	      7.66902046	      2.06292324	     -5.58638330	     32.24554858	    -13.65737295	      0.47906320	     61.15247014	     61.15247014	      7.57400961	    -17.74691067	      9.04119259	     -8.59387810	      7.27402263	      3.72844878	     24.28918627	    -14.58575369	     -5.51198675	     50.72784399	     45.57991262	      0.00000000	      0.00000000	      5.11977987	     -6.11762494	     -0.29328290	     23.19370478	     46.19709665	      0.00000000	      0.00000000
     57.20550000	     -3.12992025	     -5.78317750	      2.25613524	      1.00701239	      0.93431874	      0.46465461	      7.07709894	      5.98231480	    -20.48455083	      9.32928949	      9.32928949	      7.76483945	      2.57899995	     -5.55403107	     32.86116332	    -13.63680163	      0.10974704	     58.45065405	     58.45065405	      7.91194423	    -17.82435702	      9.60688299	     -8.62152434	      7.25788131	      3.72029492	     25.98574347	    -14.71867707	     -5.43659395	     53.00760809	     45.50302304	      0.00000000	      0.00000000	      3.84616698	     -6.16743751	     -0.07717734	     22.17704296	     46.12975793	      0.00000000	      0.00000000
     57.21785714	     -3.24269957	     -5.78888648	      2.35932880	      1.00572585	      0.93430970	      0.46509843	      6.39689633	      6.14928333	    -20.69713238	      8.60891365	      8.60891365	      7.87796059	      3.22940816	     -5.77126271	     33.40456092	    -13.57444361	     -0.27758115	     55.46816982	     55.46816982	      8.27456925	    -17.72450968	     10.46325282	     -8.64215424	      7.26241243	      4.32393379	     26.64965559	    -15.63878452	     -4.91654969	     57.41891119	     45.33254800	      0.00000000	      0.00000000	      2.81548267	     -6.15795958	      0.64953655	     21.49926892	     45.94519446	      0.00000000	      0.00000000
     57.23021429	     -3.35045113	     -5.72158793	      2.45787652	      1.00443531	      0.93418180	      0.46535940	      5.79423200	      6.22733911	    -20.63808903	      8.04592412	      8.04592412	      8.09025413	      3.38119316	     -5.80097304	     33.72209959	    -13.34108801	     -0.65838290	     52.11523679	     52.11523679	      8.43244111	    -17.66691267	     10.95250479	     -8.60221007	      7.16961421	      4.29794404	     28.48780579	    -15.65231062	     -5.06061948	     59.08042811	     45.29088704	      0.00000000	      0.00000000	      1.45829104	     -6.23715223	      0.80145266	     20.98560152	     45.88304094	      0.00000000	      0.00000000
